<?xml version="1.0" encoding="utf-8"?>
<!-- Generator: Adobe Illustrator 16.0.0, SVG Export Plug-In . SVG Version: 6.00 Build 0)  -->
<!DOCTYPE svg PUBLIC "-//W3C//DTD SVG 1.1//EN" "http://www.w3.org/Graphics/SVG/1.1/DTD/svg11.dtd">
<svg version="1.1" id="Ebene_1" xmlns="http://www.w3.org/2000/svg" xmlns:xlink="http://www.w3.org/1999/xlink" x="0px" y="0px"
	 width="327.348px" height="87.622px" viewBox="-577.095 76.488 327.348 87.622"
	 enable-background="new -577.095 76.488 327.348 87.622" xml:space="preserve">
<g>
	<path fill="#6BC1B4" d="M-277.824,108.513c-3.194,0-5.793-2.599-5.793-5.793s2.599-5.793,5.793-5.793
		c3.195,0,5.793,2.599,5.793,5.793h7.318c0-7.229-5.883-13.11-13.111-13.11s-13.109,5.881-13.109,13.11s5.881,13.109,13.109,13.109
		c3.195,0,5.793,2.6,5.793,5.794c0,3.193-2.598,5.792-5.793,5.792c-3.194,0-5.793-2.599-5.793-5.792h-7.316
		c0,7.228,5.881,13.109,13.109,13.109s13.111-5.882,13.111-13.109C-264.713,114.394-270.596,108.513-277.824,108.513z"/>
	<path fill="#6BC1B4" d="M-338.186,89.522h-7.317v45.162h7.317v-22.508h0.048c0-8.407,6.839-15.246,15.246-15.246v-7.317
		c-5.896,0-11.271,2.274-15.294,5.99V89.522z"/>
	<path fill="#6BC1B4" d="M-359.649,89.477l0.001,5.98c-4.017-3.685-9.369-5.938-15.237-5.938c-12.441,0-22.564,10.123-22.564,22.563
		c0,12.441,10.123,22.562,22.564,22.562c5.872,0,11.226-2.254,15.245-5.944l0,5.982l7.319-0.002l-0.012-45.207L-359.649,89.477z
		 M-374.885,127.332c-8.408,0-15.247-6.841-15.247-15.247c0-8.407,6.839-15.246,15.247-15.246c8.273,0,15.029,6.625,15.241,14.848
		v0.794C-359.853,120.704-366.61,127.332-374.885,127.332z"/>
	<path fill="#6BC1B4" d="M-462.651,127.394c-8.413,0-15.259-6.845-15.259-15.26c0-8.413,6.846-15.257,15.259-15.257
		c5.162,0,9.937,2.581,12.771,6.906l6.119-4.013c-4.192-6.394-11.254-10.212-18.891-10.212c-12.449,0-22.576,10.128-22.576,22.576
		s10.126,22.577,22.576,22.577c3.938,0,7.817-1.03,11.216-2.979c3.292-1.889,6.08-4.6,8.06-7.84l-6.244-3.815
		C-452.418,124.659-457.29,127.394-462.651,127.394z"/>
	<rect x="-499.391" y="89.572" fill="#6BC1B4" width="7.317" height="45.161"/>
	<path fill="#6BC1B4" d="M-411.613,118.315l-0.006,0.006c0,4.979-4.05,9.028-9.027,9.028c-4.978,0-9.027-4.05-9.027-9.028v-28.78
		h-7.317v28.78c0,9.013,7.332,16.345,16.344,16.345c3.334,0,6.438-1.006,9.027-2.727v11.743c0,4.978-4.05,9.027-9.027,9.027
		c-4.978,0-9.027-4.05-9.027-9.027h-7.317c0,9.012,7.332,16.344,16.344,16.344s16.344-7.332,16.344-16.344l0.007-54.142h-7.318
		V118.315L-411.613,118.315z"/>
	<path fill="#6BC1B4" d="M-553.076,143.734l-0.025,0.026c0,4.977-4.051,9.027-9.028,9.027v7.316c9.003,0,16.331-7.318,16.345-16.317
		l0.025-0.026V89.592h-7.316V143.734L-553.076,143.734z"/>
	<path fill="#6BC1B4" d="M-513.537,118.373c0,4.979-4.05,9.026-9.027,9.026c-4.979,0-9.028-4.048-9.028-9.026l-0.032-0.031v-28.75
		h-7.316v28.781l0.032,0.031c0.017,8.997,7.343,16.312,16.345,16.312c9.012,0,16.343-7.33,16.343-16.343V89.572h-7.316V118.373
		L-513.537,118.373z"/>
	<path fill="#6BC1B4" d="M-305.091,118.323V96.839h4.762v-7.317h-4.762v-9.028h-7.316v9.028h-4.799v7.317h4.799v21.481
		c0,9.013,7.333,16.345,16.345,16.345v-7.317C-301.039,127.349-305.091,123.299-305.091,118.323z"/>
</g>
<g>
	<path fill="#6BC1B4" d="M8.83,35.896l-0.016,0.017c0,2.973-2.419,5.391-5.391,5.391v4.367c5.376,0,9.751-4.369,9.759-9.742
		l0.017-0.016V3.57H8.83V35.896z"/>
	<path fill="#6BC1B4" d="M39.842,3.54v3.57c-2.398-2.201-5.594-3.545-9.098-3.545c-7.43,0-13.474,6.044-13.474,13.474
		c0,7.427,6.044,13.471,13.474,13.471c3.505,0,6.701-1.346,9.103-3.551v3.572h4.369L44.21,3.54H39.842z M30.744,26.142
		c-5.021,0-9.104-4.085-9.104-9.103c0-5.021,4.084-9.104,9.104-9.104c4.938,0,8.974,3.955,9.101,8.865v0.473
		C39.719,22.185,35.684,26.142,30.744,26.142z"/>
</g>
</svg>
